<?xml version="1.0" encoding="utf-8"?>
<!-- Generator: Adobe Illustrator 25.2.1, SVG Export Plug-In . SVG Version: 6.00 Build 0)  -->
<svg version="1.1" xmlns="http://www.w3.org/2000/svg" xmlns:xlink="http://www.w3.org/1999/xlink" x="0px" y="0px"
	 viewBox="0 0 130 88" style="enable-background:new 0 0 130 88;" xml:space="preserve">
<style type="text/css">
	.st0{fill:#0B162A;}
	.st1{fill:none;}
	.st2{fill:#FFFFFF;}
	.st3{fill:#C83803;}
	.st4{opacity:0.5;}
	.st5{opacity:0.5;fill:#FFFFFF;}
</style>
<g id="Layer_2">
	<rect class="st0" width="130" height="88"/>
</g>
<g id="Layer_1">
	<g>
		<path class="st1" d="M-6.38-27.38h142.75v142.75H-6.38V-27.38z"/>
		<path class="st0" d="M40.66,7.9c-14.33,5.93-20.84,14.92-23.78,21.42c-1.89,4.22-3.74,7.39-5.83,9.98
			c-2.14,2.23-6.06,4.69-8.35,5.56l-0.43,0.16l-0.08,1.56l0.59,0.12c2.97,0.59,6.66,2.82,7.86,4.35c1.54,1.55,2.61,2.62,5.32,7.41
			c0.04,0.06,1.38,2.19,1.38,2.19c0.88,1.47,1.78,3,4.21,5.69c1.87,2.62,10.8,10.87,20.53,14.42c6.83,3.39,15.81,5.06,27.36,5.09
			c16.97,0.1,29.82-3.62,41.66-12.03c4.91-3.8,6.49-5.33,10.63-10.25c2.77-3.28,5.79-9.06,5.91-15.44l0.02-0.71l-24.01-0.03
			l-0.13,0.53c-1.95,7.84-9.85,12.73-14.38,14.94C77.31,67.89,62.42,67.95,51.23,63C40.77,57.76,35.21,50.67,35.6,43.05
			c0.4-7.77,7.01-15.19,16.84-18.91c19.02-6.97,37.3-0.98,44.2,5.51l0.2,0.19l27.98-0.03l-0.38-0.96
			C118.69,14.26,97.88,6.03,88.7,4.33C68.15-0.37,50.4,3.09,40.66,7.9"/>
		<path class="st2" d="M15.33,37.18c1.46-2.31,2.04-3.61,2.84-5.42l0.86-1.89c2.58-5.48,6.91-10.51,12.53-14.53
			c5.49-3.68,11.58-6.63,16.68-8.09c22.17-6.44,44.83-0.91,54.66,4.37c3.88,1.78,14.4,8.02,18.65,16.13H97.87
			c-16.49-12.83-38.73-9.57-49.7-4.21c-4.43,2.46-7.01,4.45-10.23,7.89c-5.01,6.06-7.7,16.39,1.1,25.64
			c3.98,3.87,7.96,6.49,12.92,8.53c11.47,4.75,27.56,4.22,39.13-1.29c7.39-3.86,12.3-8.97,14.28-14.82h19.97
			c-0.71,5.07-2.19,10.32-9.76,17.66l-0.84,0.76c-3.67,3.31-8.69,7.85-18.51,11.43c-16.75,6.5-41.79,5.75-55.85-1.67
			c-0.01,0-0.88-0.44-0.88-0.44c-3.16-1.58-7.48-3.74-12.93-8.81c-3.8-3.49-6.45-6.94-9.79-12.73C13.15,49.03,8.6,46.6,6.16,45.57
			C8.29,44.5,12.45,41.94,15.33,37.18"/>
		<path class="st3" d="M16.19,40.86c2.37-2.63,4.25-9.38,8-14.51c5.33-7.51,12.38-11.44,17.63-13.95c12-5.88,29.25-7.55,46.13-3.5
			c6.12,1.45,12.25,3.63,16.62,6.48c4.38,2.6,9.5,6.35,12.38,10H98.92c-5.35-4.28-11.23-6.35-16.47-7.48
			c-5.87-1.5-15.13-2.3-26.13,0.33c-6.5,1.62-11,3.87-15.38,7c-8.62,6.13-18.12,22.23-1.25,36.24c5.5,4.65,10.12,6.15,15.25,7.93
			c9.5,2.75,21.38,2.23,28.25,0.35c10.38-2.75,14.25-6.38,17.63-9.25c3.13-3,5.75-6.63,6.48-8.5l14.8-0.02
			c-1.03,5.53-5.03,10.03-8.9,13.78c-4.44,4.18-7.75,6.38-14.3,9.65c-15.32,7.35-37.83,7.1-51.7,2.08c-7.13-2.6-9.13-3.78-14.5-7.5
			c-4.38-3.53-7.25-5.85-11.38-12.23c-1.87-3.13-2.75-4.88-4.87-7.75c-1.5-1.63-2.5-3.13-5.13-4.38
			C13.72,43.92,15.04,42.67,16.19,40.86"/>
	</g>
</g>
<g id="Layer_3" class="st4">
	<polygon class="st5" points="0,88 0,0 130,0 	"/>
</g>
</svg>
