<?xml version="1.0" encoding="utf-8"?>
<!-- Generator: Adobe Illustrator 25.2.1, SVG Export Plug-In . SVG Version: 6.00 Build 0)  -->
<svg version="1.1" xmlns="http://www.w3.org/2000/svg" xmlns:xlink="http://www.w3.org/1999/xlink" x="0px" y="0px"
	 viewBox="0 0 130 88" style="enable-background:new 0 0 130 88;" xml:space="preserve">
<style type="text/css">
	.st0{fill:#002A66;}
	.st1{fill:none;}
	.st2{fill:#FFFFFF;}
	.st3{fill:#C60C30;}
	.st4{fill:#00338D;}
	.st5{opacity:0.5;}
	.st6{opacity:0.5;fill:#FFFFFF;}
</style>
<g id="Layer_2">
	<rect class="st0" width="130" height="88"/>
</g>
<g id="Layer_1">
	<g>
		<rect class="st1" width="130" height="88"/>
		<path class="st2" d="M126.64,26.99c0,0-0.03,8-2.42,15.92c0,0-0.37,1.24-0.71,1.98c0,0-0.5,1.01-1.45,2.28
			c0,0-2.68,2.76-3.71,5.18c0,0-0.56,1.61-1.68,4.54c0,0-0.86,4.03-6.71,4.25c0,0-5.69,7.2-8.06,9.27l-0.2-1.75
			c0,0-3.97,3.68-7.42,5.86l1.16-10.2c0,0,0.29-1.83-0.87-1.96l-2.97-0.07c0,0,0.97,6.14-0.2,8.98c0,0-0.75,4.46-7.67,6.58
			c0,0-5.34,1.7-11.45,2.18l-1.31-0.21l-9.62,3.94l2.81-10.09c0,0-3.6,0.37-3.91-0.08l-10.71,4.59l4.21-12.07l2.88-1.6l-0.92-1.25
			l-5.92,0.05l-2.18,1.7c-5.03-1.31-9.92-0.96-9.92-0.96L12.8,84.26L11.11,88H0v-1.08l1.44-1.88l-0.88-0.67L0,84.81V69.28
			c6.98-5.58,9.31-10.89,9.31-10.89L0,59.72V40.19l17.33-1.46c0,0,9.55-8.53,24.35-14.65c0,0,1.54-2.69,9.99-7.55
			c0,0,7.75-4.57,16.57-7.49c0,0,5.98-2.05,7.75-2.16l-0.52-1.9l11.28-0.97l0.29-1.08c0,0,5.89,0.4,9.26,1.89l0.67-0.88
			c0,0,7.88,3.62,13.74,12.52c0,0,5.69-0.31,10.78,2.12C121.49,18.58,126.89,20.73,126.64,26.99z"/>
		<path class="st3" d="M107.45,41.44L0,57.46V42.47l109.37-9.41C103.18,38.2,107.45,41.44,107.45,41.44z"/>
		<path class="st4" d="M9.18,75.88c0,0-0.03,4.3-5.25,7.22l0.2,1.36l-2.48,3.42L1.74,88h6.92l2.35-5.21l22.94-18.6
			C33.95,64.19,19.25,64.01,9.18,75.88z M89.13,62l-4.14,0.05c-0.96,8.14-7.41,9.41-7.41,9.41c-2.51,0.75-10.82,1.39-10.82,1.39
			l-2.03,7.22l6.2-2.62l0.39,0.34c8.18-0.52,13.63-2.83,13.63-2.83c3.71-1.42,4.52-5.05,4.52-5.05C89.96,67.47,89.13,62,89.13,62z
			 M120.48,20.51c0,0-3.92-2.16-11.24-1.56c0,0-1.46-5.1-11.56-12.1l-0.74,1.1c0,0-3.45-2.38-8.33-2.32L88.36,6.3
			c0,0-2.97-0.02-9.44,0.66l0.6,1.79c0,0-13.36,0.62-32.3,13.31l-0.35,1.04l-2.41,1.13l1.29,0.71c0,0-14.47,5.23-25.01,13.85
			l98.08-8.06c0,0-9.59,6.56-6.26,12.21c0,0-3.48,1.93,0.36,4.64c0,0-5.94,2.68-4.37-4.66L12,57.53c0,0-1.67,7.09-12,14.55v10.06
			l2.62-2.01c0,0,7.19-11.26,19.02-15.67c0,0,10.43-4.45,25.66-1.93l1.4-1.33l17.63-0.39c0,0,0.67,0.15,0.22,0.51
			c0,0-3.47,2.67-7.28,3.01l0.36,1.09c0,0,0.1,0.38-0.18,0.47l-3.7,1.47l-2.44,6.77l6.93-3.02l0.39,0.3c0,0,6.03,0.37,15.11-1.47
			c0,0,6.29-1.24,8.05-9.4l11.98-0.52c0,0,2.5,0.53,2.18,2.85l-0.85,6.79l5.48-4.88l0.38,1.28c0,0,4.15-4.5,5.21-7.07
			c0,0,4.56,0.09,5.69-1.75c0,0,0.51-0.52,1.97-4.53c0,0,0.68-2.82,3.5-5.59c0,0,2.18-2.05,3.39-7.41c0,0,1.46-7.77,1.45-9.25
			C124.17,30.46,125.74,22.77,120.48,20.51z"/>
	</g>
</g>
<g id="Layer_3" class="st5">
	<polygon class="st6" points="0,88 0,0 130,0 	"/>
</g>
</svg>
