<?xml version="1.0" encoding="utf-8"?>
<!-- Generator: Adobe Illustrator 25.2.1, SVG Export Plug-In . SVG Version: 6.00 Build 0)  -->
<svg version="1.1" id="Layer_1" xmlns="http://www.w3.org/2000/svg" xmlns:xlink="http://www.w3.org/1999/xlink" x="0px" y="0px"
	 viewBox="0 0 130 88" style="enable-background:new 0 0 130 88;" xml:space="preserve">
<style type="text/css">
	.st0{fill:#701C36;}
	.st1{fill:none;}
	.st2{fill:#FFFFFF;}
	.st3{fill:#97233F;}
	.st4{fill:#FFB612;}
	.st5{opacity:0.5;}
	.st6{opacity:0.5;fill:#FFFFFF;enable-background:new    ;}
</style>
<g id="Layer_2_1_">
	<rect class="st0" width="130" height="88"/>
</g>
<g id="Layer_1_1_">
	<g>
		<path class="st1" d="M-13.06-9.34l128.38-27.74L143.06,91.3L14.68,119.04L-13.06-9.34z"/>
		<path d="M123.38,59.23c-2.45-12.49-14.12-19.22-14.12-19.22c-2.75-7.64-8.07-18.39-25.1-23.5C58.3,8.76,47.76,21.93,6.5,7.48
			c1.66,4.01,5.31,9.27,9.14,12.19l-4.03-0.42c3.99,5.18,9.5,9.47,12.17,10.68l-4.51-0.42c6.84,10.01,16.99,14.63,16.99,14.63
			c5.62,16.38,18.57,16.58,21.8,26.71c16.6-0.98,37.29,12.56,37.29,12.56C100.93,66.21,112.68,60.57,123.38,59.23"/>
		<path class="st2" d="M98.14,42.04c-2.28,6.38-8.52,6.09-12.14-0.47l4.31-0.66c-4.21-1.43-8.31-3.98-11.63-6.66
			c2.58,15.66,18.65,19.46,21.12,7.54C99.25,41.91,98.7,41.99,98.14,42.04"/>
		<path class="st3" d="M82.68,19.04c-18.73-5.56-37.9,4.82-67.54-5.74c4.26,7.18,22.41,12.76,22.41,12.76L22.22,24.5
			c5.01,5.54,21.66,10.25,21.66,10.25l-14.29-1.43C37.11,41.32,51,44.81,51,44.81l-7.83,1.11c2.86,8.43,16.41,13.29,18.48,19.82
			c5.84,0.9,13.58,2.99,20.01,6.49c9.26-7.34,2.68-23.97-22.37-44.17c27.54-4.23,31.15,16.1,46.12,9.83
			C103.09,32.71,100.5,24.34,82.68,19.04"/>
		<path class="st4" d="M120.74,56.45c-4.62-2.97-13.46-5.11-23.43-4.18c3.89-2.05,8.06-5.61,9.14-9.98
			C111.13,44.01,118.48,50.24,120.74,56.45L120.74,56.45z M101.07,66.23c0.42-5.8-3.56-10.13-3.56-10.13
			c8.34-2.68,18.6-0.75,23.1,1.65C114.4,57.83,106.62,61.31,101.07,66.23L101.07,66.23z"/>
		<path class="st2" d="M98.14,42.04c-2.28,6.38-8.52,6.09-12.14-0.47l4.31-0.66c-4.21-1.43-8.31-3.98-11.63-6.66
			c2.58,15.66,18.65,19.46,21.12,7.54C99.25,41.91,98.7,41.99,98.14,42.04"/>
	</g>
</g>
<g id="Layer_3" class="st5">
	<polygon class="st6" points="0,88 0,0 130,0 	"/>
</g>
</svg>
