<?xml version="1.0" encoding="utf-8"?>
<!-- Generator: Adobe Illustrator 25.2.1, SVG Export Plug-In . SVG Version: 6.00 Build 0)  -->
<svg version="1.1" id="Layer_1" xmlns="http://www.w3.org/2000/svg" xmlns:xlink="http://www.w3.org/1999/xlink" x="0px" y="0px"
	 viewBox="0 0 130 88" style="enable-background:new 0 0 130 88;" xml:space="preserve">
<style type="text/css">
	.st0{fill:#7F1429;}
	.st1{fill:#A5ACAF;}
	.st2{fill:#FFFFFF;}
	.st3{fill:#A71930;}
	.st4{opacity:0.5;}
	.st5{opacity:0.5;fill:#FFFFFF;enable-background:new    ;}
</style>
<g id="Layer_2_1_">
	<rect class="st0" width="130" height="88"/>
</g>
<g id="Layer_1_1_">
	<g>
		<path class="st1" d="M123.18,30.61C104.5,18.81,61.7,9.78,29.79,2.36L0,34.39v7.29l24.59-0.52c-7,11.33-10.25,29.5-8.14,46.85
			h47.91c4.28-8.22,7.89-15.13,7.89-15.13h4.35c5.91,0,7.85,2.22,5.23,5.34c15.72-0.2,25.38-6.15,29.71-12.51
			c-3.3-6.04-13.79-13.14-18.04-16.02h22c6.31,0,7.73,2.64,6.25,5.52c3.55-0.7,6.5-2.78,8.25-5.57V37.28
			C128.63,34.94,126.41,32.65,123.18,30.61z"/>
		<path class="st2" d="M124.19,52c0.71-3.09-1.85-4.92-6.98-4.92H82.31c0,0,20.34,10.03,26.48,18.62
			c-7.38,8.97-17.56,9.51-23.13,9.51c0.92-2.21-1.24-5.07-8.01-5.07H69.5C66.1,76.67,63.04,82.64,60.33,88H21.02
			c-1.89-18.14,2.2-37.85,12.19-51.06H5.23L32.22,8.01c0,0,63,9.51,88.45,23.79C130.79,37.48,133.1,47.65,124.19,52z"/>
		<path d="M119.61,33.72C98.22,21.98,30.43,12.05,30.43,12.05l2.46,3.12L17.18,32.1l55.26,4.22c-0.1,0.2-0.2,0.4-0.3,0.61H35.02
			l2.87,2.71c-2.35,3.31-4.34,6.87-6.02,10.61l31.03-6.35c-0.16,0.25-0.33,0.5-0.49,0.76L25.44,56.99l3.24,1.84
			c-1.52,5.08-2.51,10.33-2.98,15.6l31.41-19.08c-0.09,0.28-0.19,0.57-0.27,0.87L22.19,83.57l3.19,0.81c0.04,1.22,0.1,2.43,0.2,3.63
			h13.67l16.79-19.81c0.05,0.26,0.1,0.53,0.16,0.8L43.24,88h13.79c9.18-18.33,20.53-40.94,20.53-40.94l-4.94-2.65h46
			c4.72,0,7.33,1.98,7.28,4.64C128.81,46.58,129.46,39.13,119.61,33.72z M79.37,48.02l0.63,1.91c-1.51,2.96-6.95,13.75-8.84,17.52
			h14.12c0.19,2.5,2.67,4.63,5.25,5.19c-1.53-2.05-0.92-4.07,0.22-5.19h6.66c1.85,0,1.28,2.23-1.73,4.53
			c4.72-1.08,8.24-3.22,10.54-6.29C101.85,59.04,79.37,48.02,79.37,48.02z"/>
		<path class="st2" d="M122.04,37.98l0.59,2.61c-4.03,0.76-11.16,1.36-13.16,1.52c-0.1,0.2-0.2,0.4-0.3,0.6h10.6
			c4.21,0,5.98,2,6.35,3.14C126.67,44.29,126.17,40.08,122.04,37.98z M110.25,32.81c2.35,0.79,7.65,3.74,9.64,6.05h-3.8
			C114.59,36.38,110.25,32.81,110.25,32.81L110.25,32.81z"/>
		<path class="st3" d="M36.07,20.71l-4.49,4.87l73.34,10.15c0.13-0.26,0.26-0.53,0.39-0.79C90.3,30.57,60.77,24.53,36.07,20.71z
			 M77.83,61.99l-1.62,3.14h17.26l0.38-0.76L77.83,61.99z M50.68,66.71L29.66,84.59c0.08,1.14,0.19,2.28,0.33,3.41h2.52l18.21-20.32
			C50.7,67.35,50.69,67.03,50.68,66.71z M54.4,80.87L49.67,88h2.07l3.09-6.34C54.68,81.4,54.54,81.14,54.4,80.87z M40.8,40.99
			c-1,1.36-1.92,2.78-2.78,4.25l22.11-3.95c0.19-0.25,0.38-0.5,0.58-0.76L40.8,40.99z M31.93,60.02c-0.48,1.79-0.89,3.62-1.23,5.45
			l22.6-12.34c0.12-0.31,0.25-0.61,0.38-0.93L31.93,60.02z"/>
	</g>
</g>
<g id="Layer_3" class="st4">
	<polygon class="st5" points="0,88 0,0 130,0 	"/>
</g>
</svg>
