<svg xmlns="http://www.w3.org/2000/svg" viewBox="0 0 130 88"  xmlns:v="https://vecta.io/nano"><path d="M0 0h130v88H0z"/><path d="M-39.93 88.27h.01l.95-1.75-.96 1.75zm158.41-53.63h1.63v-.01l-1.63.01zm-3.19.03c-.57-1.2-1.4-2.1-2.24-2.77-.13-.09-1.12-.78-3.03-1.63a5.85 5.85 0 0 1 .94.86 5.48 5.48 0 0 1 1.2 1.96c.2.54.32 1.14.35 1.8.15 3.17-1.35 5.42-2.95 6.9l-.26.23-.9.71-.41.29-.38.24c-.5.31-.92.52-1.2.65-.05.02-.1.05-.14.06l-.11.05c-.02 0-.03.01-.04.01.26-.17.54-.41.84-.71.46-.46.94-1.04 1.37-1.74l.37-.63c.14-.26.27-.52.37-.8.09-.17.16-.34.22-.52l.25-.77c.11-.4.19-.81.26-1.24l.07-.65a9.5 9.5 0 0 0-.01-1.41l-.09-.78-.06-.34c-.01-.07-.03-.13-.05-.2a1.71 1.71 0 0 0-.09-.3 5.24 5.24 0 0 0-.3-.78l-.39-.72c-.44-.71-1-1.34-1.59-1.87-1.94-1.77-4.26-2.62-4.26-2.62s-7.02 3.05-8.56 8.77c0-.27-.11-6.05-9.84-9.82 0 0 4.69-1.41 9.73-1.06 5.04.36 8.67 2.11 8.67 2.11s.93-2.45 5.87-3.29c4.95-.84 10.29.37 10.29.37-.98-1.8-2.12-4.43-7.09-6.46s-9.43-.19-9.43-.19-.32-2.4-3.93-4.74c-5.87-3.79-21.4-6.05-24.39-6.22-.93-.05-1.06.11-.74.38.07.06.18.14.3.21.24.15.57.32.95.51.13.07.26.13.39.19l1.06.5.36.18c.75.34 1.49.69 2.02 1a14.49 14.49 0 0 1 .9.55c.45.29.9.62 1.33.96 1.58 1.27 2.89 2.83 3.05 4.34a2.42 2.42 0 0 1-.34 1.53c-.21-.61-.65-1.4-1.43-2.39-.24-.31-.5-.61-.79-.9-.13-.15-.28-.29-.43-.43-.3-.29-.62-.55-.96-.81-1.17-.91-2.55-1.7-4.07-2.37l-.66-.28c-.72-.3-1.47-.57-2.23-.81-2.3-.74-4.77-1.24-7.22-1.51-.01.01-.02.01-.03 0-2.32-.26-4.62-.32-6.74-.18-2.28.15-4.42.5-6.33.93-.64.14-1.25.29-1.82.45-.39.1-.76.2-1.12.31l-.59.18c-.39.11-.75.23-1.1.35l-.5.17a18.5 18.5 0 0 0-1 .36l-.91.35-.66.28c-.11.05-.21.09-.29.13-.11.05-.17.08-.2.09l-.01.01c.03.22-.22.59-.78 1.03a9.16 9.16 0 0 1-.41.29c-.15.1-.31.2-.49.31-.18.1-.38.21-.59.31-1.79.9-4.75 1.86-9.2 2.35-4.17.45-7.71.28-10.44-.03l-1.45-.19c-.23-.03-.45-.07-.66-.1l-1.18-.2-1.42-.26-.7-.12-.16-.03c-.44-.05-.83-.07-1.13.02-.06.02-.11.04-.15.06a.9.9 0 0 0-.44.46l-.02.08-.02.11c-.04.37.16.86.21.97.01.01.01.02.01.02.67 1.24 2.92 5.24 6.01 8.37.5.51 1.03 1 1.58 1.46.28.22.56.44.84.64l.42-.08a66.89 66.89 0 0 1 2.22-.39c.16-.02.32-.05.49-.08.84-.13 1.79-.26 2.8-.37 0 0-.01.01-.03.01l-.01.01c-.07.03-.24.11-.49.25-.09.05-.2.1-.32.16-.08.04-.16.08-.25.13-.14.06-.29.14-.45.23l-1.18.62-2.76 1.5-1.9 1.07-2.13 1.23-1.54.91-2.19 1.32-2.32 1.44-2.45 1.56-2.56 1.68-1.32.88-4.07 2.82-1.94 1.39L0 44.98v32.17c5.16-6.32 13.27-14.12 25.23-19.91C24.31 57.9 9.67 68.57 3.96 88h75.96c-2.7-1.55-5.12-4.18-6.44-8.45-2.58-8.34-2.58-18.63.72-23.67-.1.46-2.16 10.06-.97 15.57 1.23 5.64 3.56 10.43 8.1 11.29 4.55.86 11.3.61 13.76-2.21.09-.11.18-.21.27-.32.61-.76 1.12-1.61 1.48-2.54.98-2.51.95-5.66-.77-9.54-2.46-5.52-7.37-12.64.74-19.75 0 0-3.56 4.29-2.21 10.55s4.14 7 5.51 16.94c.83 6.08-2.15 10-5.72 12.13h3.37c1.59-2.95 2.1-6.1 2.42-8.68.66-5.32-.25-8.78-.29-8.93l.04-.04c.67-.89 10.77-14.39 14.74-26.27a36.28 36.28 0 0 0 .87-2.96l.38-1.88c.13-1.06.1-2-.07-2.84l-.56-1.73zm-13.45-10.52c.01-.07.02-.21.05-.39.01-.08.03-.17.05-.26a6.22 6.22 0 0 1 .12-.45 5.16 5.16 0 0 1 .5-1.12 1.81 1.81 0 0 1 .19-.29c.23-.33.52-.64.88-.9.06-.04.12-.09.19-.13.06-.05.13-.09.2-.12.07-.04.14-.08.21-.11.03-.02.06-.03.09-.04.08-.04.16-.08.25-.11.05-.02.1-.03.15-.05.02-.01.04-.02.06-.02.14-.05.29-.08.46-.12.23-.05.46-.08.69-.1a1.1 1.1 0 0 1 .18-.02c.08-.01.15-.01.23-.01.12-.01.25-.01.38-.01.16 0 .32.01.47.02a2.04 2.04 0 0 1 .34.03 6.57 6.57 0 0 1 .64.09c.19.03.37.07.56.13a7.87 7.87 0 0 1 1.57.55c.13.05.26.12.38.18a6.13 6.13 0 0 1 .72.4c.19.12.38.24.55.37.18.12.34.25.49.37.13.1.25.21.36.31 0 0-.43-.08-1.14-.16-.13-.01-.26-.02-.41-.04h-.04a12.19 12.19 0 0 0-.92-.06c-.03-.01-.07-.01-.11 0a5.91 5.91 0 0 0-.43-.02 17.32 17.32 0 0 0-2.65.1c-.23.02-.47.05-.7.09-1.52.23-3.04.72-4.2 1.62-.13.1-.25.2-.36.3l-.01.01c0 0 0-.01.01-.04zM37.06 65.51c-6.9-8.47-4-19.78-4-19.78s.26 9.7 8.73 18.27c8.48 8.58 18.99 10.9 18.99 10.9s-16.82-.92-23.72-9.39zm30.45-26.14c-17.11-1.2-30.85 2.71-32.29 3.13 12.99-4.97 25.14-5.63 32.36-5.43a7.57 7.57 0 0 0-.07 2.3zm.87-4.61h0a105.84 105.84 0 0 0-6.78-.68 103.22 103.22 0 0 0-12.57-.01c-.12.01-.24.01-.35.02l-1.58.11-1.5.13a80.81 80.81 0 0 0-2.76.3c-.12.01-.24.02-.36.04a61.34 61.34 0 0 0-1.93.26l-1.38.21c-.4.06-.78.13-1.14.19l-2.15.41c-.22.05-.41.09-.57.12l-.48.11c14.85-4.77 28.35-4.17 35.01-3.41-.63.77-1.11 1.51-1.46 2.2zm3.35-4.16c-19.8-4.67-37.12-1.36-37.12-1.36 21.44-5.62 39.6-.59 39.6-.59-.95.66-1.77 1.31-2.48 1.95zm3.35-8.95c-.1-.02-.2-.03-.3-.03l-.68-.07-.71-.06c-.59-.06-1.22-.1-1.87-.13l-.64-.03c-1.67-.09-3.53-.12-5.57-.09 0 0-.41-.76.67-2.36 0 0-.42-.12-1.53-.26-.14-.02-.29-.04-.45-.05-.16-.02-.33-.04-.52-.05-.18-.02-.38-.03-.58-.05-.21-.01-.43-.03-.67-.05-.93-.06-2.07-.1-3.45-.13.25-.11 4.46-1.87 9.41-1.65.11 0 .22.01.33.02.11 0 .23.01.34.03a6.71 6.71 0 0 1 .63.06c.22.02.44.05.66.09.06 0 .11.01.17.02.04 0 .08.01.12.02.03 0 .07.01.1.02.02.01.03.01.04.01h.01l.01.01.01-.01.01.01c.03-.01.03-.01.03 0h.02l.01.01h.01c.19.03.38.07.57.11 3.63.83 6.47 2.59 8.22 3.95.27.21.52.41.74.6.08.05.15.12.22.18a6.87 6.87 0 0 0 .33.29c.13.11.24.22.33.31l.11.11.1.1.06.06c.06.05.08.08.1.1-.07-.01-.39-.1-.94-.23-.14-.03-.3-.07-.47-.1-.88-.19-2.16-.42-3.83-.63l-1.15-.13zm19.59 46.77c.93 2.19 1.46 5.12.93 7.22-.52 2.08-1.88 4.18-7.53 4.7-5.64.52-8.89-1.26-8.89-1.26 2.52-2.51 4.96-9.3 4.96-9.3 1.25 4.81.19 7.04.19 7.04 2.71.83 6.88-.04 6.88-.04 3.87-2.82 3.46-8.36 3.46-8.36zm8.69-23.41c-.01.04-.02.1-.04.17 0 .04-.01.08-.03.12-.04.12-.07.28-.12.47-.02.13-.06.27-.1.42s-.09.3-.13.47c-.09.33-.2.7-.32 1.1s-.25.83-.41 1.28a20.66 20.66 0 0 1-.2.59c-.27.77-.58 1.58-.95 2.41a25.48 25.48 0 0 1-.54 1.19c-.11.23-.22.45-.35.68-.12.25-.25.48-.39.72-.15.28-.32.56-.49.83a20.7 20.7 0 0 1-.62.91 1.86 1.86 0 0 1-.21.28c-.14.19-.28.37-.43.54a9.8 9.8 0 0 1-1.44 1.44 4.16 4.16 0 0 1 .09-.23c.05-.12.12-.28.19-.49.04-.12.09-.25.14-.4.09-.26.18-.57.28-.91.12-.43.24-.92.36-1.46.03-.12.05-.23.07-.35.11-.55.21-1.15.28-1.79.01-.15.03-.3.04-.45.09-.83.12-1.71.09-2.64 0-.11 0-.23-.01-.34l-.04-.7c-.05-.56-.12-1.13-.21-1.71 0 0-4.45-1.64-12.53 0 0 0-3.87 8.66-8.79 12.88 0 0 3.75-8.79 1.52-15.34 0 0 6.8-2.7 15.12-2.11.48.03.94.07 1.38.11.22.02.44.04.64.07.21.02.42.04.62.07.46.05.88.11 1.27.17l.59.09c.38.06.73.12 1.05.19.17.03.33.07.48.1a12.32 12.32 0 0 1 .86.2l.51.14.46.14c.2.05.38.12.54.18l.18.06c.18.06.33.13.47.19l.18.08c.04.01.07.03.11.05.07.03.14.06.2.1.14.07.25.13.34.19a.99.99 0 0 1 .15.09.85.85 0 0 1 .13.1l.02.02v.03c0 .01 0 .03-.01.05zm19.48-29.56c-1.75.34-3.36.55-4.73.68l-.23.03-.16.01-.59.06h-.08c-1.76.14-2.87.15-2.87.15 4.49 3.4 5.01 8.65 5.01 8.65l.23-.2c3.45-2.5 5.3-8.04 5.3-8.04v-.01c.05-.1.08-.2.11-.29l.07-.23v-.02c-.29-.82-.86-.88-2.06-.79z"/><path d="M78.07 44.7c2.23 6.56-1.52 15.34-1.52 15.34 4.92-4.22 8.79-12.88 8.79-12.88 8.08-1.64 12.53 0 12.53 0 1.06 6.32-1.29 11.48-1.29 11.48 4.69-3.75 6.79-13.7 6.79-13.7s-1.87-1.76-10.19-2.34c-8.31-.6-15.11 2.1-15.11 2.1h0zm27.17-24.66c-3.22.64-3.4 4.14-3.4 4.14 3.5-3.22 10.96-1.84 10.96-1.84-1.38-1.28-4.33-2.94-7.56-2.3zM91.21 76.78s-4.17.87-6.89.04c0 0 1.07-2.23-.19-7.04 0 0-2.44 6.8-4.95 9.3 0 0 3.24 1.78 8.89 1.25 5.65-.52 7.01-2.61 7.53-4.7s0-5.02-.94-7.22c.01.01.42 5.55-3.45 8.37h0zM71.26 17.04c-6.15-1.4-12.18 1.12-12.47 1.25.29-.12 6.05-2.53 12.05-1.34-3.41-.65-4.85 1.93-4.85 1.93-1.08 1.6-.67 2.37-.67 2.37 10.5-.19 16.17 1.51 16.17 1.51s-3.92-4.28-10.23-5.72h0z" fill="#bfc0bf"/><g fill="#0085ca"><path d="M67.58 37.07c-7.22-.2-19.37.46-32.36 5.43 1.44-.42 15.18-4.33 32.29-3.13a7.57 7.57 0 0 1 .07-2.3zm3.01-20.16h-.01c-.01 0-.02 0-.04-.01-.03-.01-.07-.02-.1-.02-.04-.01-.08-.02-.12-.02-.06-.01-.11-.02-.17-.02-.22-.04-.44-.07-.66-.09a6.71 6.71 0 0 0-.63-.06c-.11-.02-.23-.03-.34-.03-.11-.01-.22-.02-.33-.02-4.95-.22-9.16 1.54-9.41 1.65 1.38.03 2.52.07 3.45.13l.67.05c.2.01.4.03.58.05.19.01.36.03.52.05.16.01.31.03.45.05 1.11.14 1.53.26 1.53.26s.44-.79 1.42-1.39a3.93 3.93 0 0 1 .65-.32c.12-.05.24-.1.37-.13.1-.03.2-.06.3-.08l.32-.06c.11-.02.23-.03.35-.04.37-.03.77-.01 1.21.06l-.01-.01zM34.83 35.97c.1-.02.26-.06.48-.11.16-.03.35-.07.57-.12l2.15-.41 1.14-.19 1.38-.21 1.93-.26c.12-.02.24-.03.36-.04a80.81 80.81 0 0 1 2.76-.3 64.64 64.64 0 0 1 1.5-.13l1.58-.11c.11-.01.23-.01.35-.02a103.22 103.22 0 0 1 12.57.01 93.17 93.17 0 0 1 6.78.68c.35-.69.83-1.43 1.46-2.2-6.66-.76-20.16-1.36-35.01 3.41zm-.22-6.73s17.32-3.31 37.12 1.36c.71-.64 1.53-1.29 2.48-1.95 0 0-18.16-5.03-39.6.59zM0 77.15V88h3.96c5.71-19.43 20.35-30.1 21.27-30.76C13.27 63.03 5.16 70.83 0 77.15zM41.79 64c-8.47-8.57-8.73-18.27-8.73-18.27s-2.9 11.31 4 19.78 23.72 9.39 23.72 9.39S50.27 72.58 41.79 64zm52.57-38.16c-5.04-.35-9.73 1.06-9.73 1.06 9.73 3.77 9.84 9.55 9.84 9.82 1.54-5.72 8.56-8.77 8.56-8.77s-3.63-1.75-8.67-2.11zm30.6-10.41l-.01-.08-.05-.14-.02-.08-.06-.12-.03-.06-.08-.11-.04-.04-.09-.09-.04-.04-.1-.08-.05-.03-.1-.06-.05-.02-.14-.07-.1-.03-.04-.02-.1-.02-.03-.01-.09-.02h-.02l-.07-.01-.01-.01h-.08c-6.2.06-11.29-2.04-11.29-2.04l-.42-.15C98.07 7.06 83.76 5.61 71.03 5.85l-.01-.02c-5.69.06-9.84.52-9.84.52-18.29 1.55-31.4 5.93-31.4 5.93s-4.97 1.4-11.6 1.07c0 0-2.46-.05-2.95 1.52-.41 1-.47 2.19.47 4.78 1.08 3 5.4 8.63 5.43 8.67C16.42 30.23 8.99 33.93 0 39.68v5.31l1.97-1.45 1.94-1.39 4.07-2.82c.45-.29.88-.59 1.32-.88l2.56-1.68 2.45-1.56 2.32-1.44 2.19-1.32 1.54-.91 2.13-1.23 1.9-1.07 2.76-1.5 1.18-.62c.16-.09.31-.17.45-.23.09-.05.17-.09.25-.13.12-.06.23-.11.32-.16l.53-.26h-.03l-.01.01c-.99.1-1.93.23-2.76.35-.17.03-.33.06-.49.08l-2.22.39-.42.09a15.85 15.85 0 0 1-.84-.65 18.09 18.09 0 0 1-1.58-1.46c-3.09-3.13-5.34-7.13-6.01-8.37 0 0 0-.01-.01-.02-.05-.11-.25-.6-.21-.97l.02-.11.02-.08a.9.9 0 0 1 .44-.46c.04-.02.09-.04.15-.06.3-.09.69-.07 1.13-.02l.16.03a21.2 21.2 0 0 1 .7.12l1.42.26 1.18.2.66.1c.45.07.94.13 1.45.19 2.73.31 6.27.48 10.44.03 4.45-.49 7.41-1.45 9.2-2.35.21-.1.41-.21.59-.31l.49-.31a9.16 9.16 0 0 0 .41-.29c.56-.44.81-.81.78-1.03a5.63 5.63 0 0 1 .21-.1c.08-.04.18-.08.29-.13.18-.08.4-.17.66-.28l.91-.35 1-.36c.16-.05.33-.11.5-.17.35-.12.71-.24 1.1-.35l.59-.18c.36-.11.73-.21 1.12-.31.57-.16 1.18-.31 1.82-.45 1.91-.43 4.05-.78 6.33-.93 2.12-.14 4.42-.08 6.74.18.01.01.02.01.03 0 2.45.29 4.92.78 7.22 1.51.76.24 1.51.51 2.23.81l.66.28c1.52.67 2.9 1.46 4.07 2.37.34.26.66.52.96.81.15.14.3.28.43.43.29.29.55.59.79.9.78.99 1.22 1.78 1.43 2.39a2.42 2.42 0 0 0 .34-1.53c-.16-1.51-1.47-3.07-3.05-4.34-.43-.34-.88-.67-1.33-.96a14.49 14.49 0 0 0-.9-.55c-.53-.31-1.27-.66-2.02-1l-.36-.18-1.06-.5c-.13-.06-.26-.12-.39-.19-.38-.19-.71-.36-.95-.51-.12-.07-.23-.15-.3-.21-.32-.27-.19-.43.74-.38 2.99.17 18.52 2.43 24.39 6.22 3.61 2.34 3.93 4.74 3.93 4.74s4.46-1.84 9.43.19 6.11 4.66 7.09 6.46c0 0-.52-5.25-5.01-8.65 0 0 1.11-.01 2.87-.15h.08l.59-.06.16-.01.23-.03c1.37-.13 2.98-.34 4.73-.68 1.2-.09 1.77-.03 2.06.79.02-.06.05-.22.06-.26l.01-.11c.01-.06.01-.12.01-.18v-.1l-.02-.16zM-39.93 88.27h.01l.95-1.75a59.44 59.44 0 0 0-.96 1.75zm140.04-12.4c-1.37-9.94-4.16-10.68-5.51-16.94s2.21-10.55 2.21-10.55c-8.11 7.11-3.2 14.23-.74 19.75 1.72 3.88 1.75 7.03.77 9.54-.36.93-.87 1.78-1.48 2.54l-.27.32c-2.46 2.82-9.21 3.07-13.76 2.21-4.54-.86-6.87-5.65-8.1-11.29-1.19-5.51.87-15.11.97-15.57-3.3 5.04-3.3 15.33-.72 23.67 1.32 4.27 3.74 6.9 6.44 8.45h14.47c3.57-2.13 6.55-6.05 5.72-12.13z"/><path d="M120.6 32.04l-.49 2.59h.23c3.03.09 6.32.43 9.66 1.17v.95c-2.76-.38-6.11-.62-10.04-.49l-.24.02c-.29 1.1-.58 2.12-.82 2.92 3.31.13 7.15.53 11.1 1.46v1.28c-3.23-.56-7.12-.97-11.63-1.02-.37-.01-.37 0 0 .01-2.75 7.16-9.03 21.37-18.44 29.42.67-.89 10.77-14.39 14.74-26.27a36.28 36.28 0 0 0 .87-2.96l.38-1.88c.13-1.06.1-2-.07-2.84l-.56-1.73c-.57-1.2-1.4-2.1-2.24-2.77.53-.01-.01-.01-.01-.01-.12-.08-1.11-.77-3.02-1.62a5.85 5.85 0 0 1 .94.86 5.48 5.48 0 0 1 1.2 1.96c.2.54.32 1.14.35 1.8.15 3.17-1.35 5.42-2.95 6.9l-.26.23c-.3.27-.6.5-.9.71l-.41.29-.38.24c-.5.31-.92.52-1.2.65-.05.02-.1.05-.14.06-.04.02-.08.04-.11.05-.02.01-.05.02-.06.03v-.01c.01 0 .01 0 .02-.01.26-.17.54-.41.84-.71.46-.46.94-1.04 1.37-1.74a9.49 9.49 0 0 0 .37-.63c.14-.26.27-.52.37-.8.09-.17.16-.34.22-.52.09-.25.18-.51.25-.77a9.72 9.72 0 0 0 .26-1.24c.03-.22.06-.43.07-.65a9.5 9.5 0 0 0-.01-1.41 6.7 6.7 0 0 0-.08-.77c-.02-.12-.04-.23-.07-.35-.01-.07-.03-.13-.05-.2a1.71 1.71 0 0 0-.09-.3 5.24 5.24 0 0 0-.3-.78 8.25 8.25 0 0 0-.39-.72c-.44-.71-1-1.34-1.59-1.87-1.94-1.77-4.26-2.62-4.26-2.62s.93-2.45 5.87-3.29c4.95-.84 10.29.37 10.29.37l.23-.2c3.45-2.5 5.3-8.04 5.3-8.04v-.01c.05-.11.09-.2.11-.29l.07-.23c-.19 1.87-1.51 6.61-5.1 9.72.69 1.29.99 2.78.96 4.59 2.99.2 6.1.66 9.24 1.51v.73c-2.4-.44-5.5-.8-9.26-.84h-.13l-.01.07z"/></g><path d="M0 88V0h130z" opacity=".25" fill="#fff"/></svg>