<?xml version="1.0" encoding="utf-8"?>
<!-- Generator: Adobe Illustrator 25.2.1, SVG Export Plug-In . SVG Version: 6.00 Build 0)  -->
<svg version="1.1" xmlns="http://www.w3.org/2000/svg" xmlns:xlink="http://www.w3.org/1999/xlink" x="0px" y="0px"
	 viewBox="0 0 130 88" style="enable-background:new 0 0 130 88;" xml:space="preserve">
<style type="text/css">
	.st0{fill:#241773;}
	.st1{fill:none;}
	.st2{fill:#9E7C0C;}
	.st3{fill:#FFFFFE;}
	.st4{fill:#C60C30;}
	.st5{opacity:0.5;}
	.st6{opacity:0.5;fill:#FFFFFF;}
</style>
<g id="Layer_2">
	<rect class="st0" width="130" height="88"/>
</g>
<g id="Layer_1">
	<g>
		<rect class="st1" width="130" height="88"/>
		<path class="st2" d="M130,40.7v22.36c-3.67,0.53-9.75,1.01-17.68,0.23c-7.77-0.76-15.85-0.15-18.06,0.04
			c-1.47,1.43-4.16,3.32-8.95,5.05l-1.96,0.71c0,0-0.38-2.67-0.46-3.21c-2.74,0.96-7.65,3.81-9.73,12.04l-0.74,2.93l-2.12-2.16
			c-0.17-0.18-3.75-3.94-3.75-11.01c0-0.27,0.02-0.56,0.03-0.85l-1.79,0.28l-3.65,0.56l1.97-3.13c0.08-0.13,2-3.24-0.05-4.81
			c-4.44-3.4-18.79-0.11-26.8,2.76l-5.01,1.79l3.06-4.35c0.49-0.71,1.84-3.07,1.54-4.63c-0.09-0.46-0.33-0.8-0.76-1.08
			c-1.88-1.23-9.97,0.42-16.38,2.65l-4.87,1.69l2.92-4.24c0.03-0.06,3.57-5.21,5.31-8.8c1.26-2.62,1.53-4.85,0.71-5.98
			c-0.87-1.2-3.26-1.61-6.71-1.15C10.43,39.14,3.96,41.16,0,42.54v-7.79c14.06-14.78,29.72-20.94,40.98-23.49
			c15.27-3.46,31.27-2.34,43.89,3.06c5.56,2.39,9.62,5.25,12.55,7.97l-0.37-3.08l3.26,3.69c1.82,2.05,2.82,4.14,3.42,5.83
			c0.27-0.37,2.1-2.87,2.1-2.87l0.51,3.78c0.06,0.48,0.09,1.08,0.09,1.69c0,0.43-0.02,0.86-0.03,1.27c1.88-0.18,5.09-0.25,9.74,0.4
			l3.02,0.42c0,0-0.44,0.45-0.84,0.86c2.11,0.51,4.16,1.14,6.11,1.9l3.94,1.54l-2.87,0.96C127.03,39.28,128.54,39.95,130,40.7z"/>
		<path d="M130,42.8v18.22c-2.97,0.33-6.85,0.56-11.77,0.29c-7.75-0.42-14.57-1.77-24.63-0.2c-1.27,1.51-3.51,3.33-8.25,5.05
			l-0.62-2.5C81.9,64.12,73.9,66.58,71.6,75.8c0,0-3.15-4.5-1.35-11.56l-5.56,1.2c0,0,3.18-4.46,0.45-7.65
			c-5.88-6.88-25.48-1.02-25.48-1.02C47.85,44,21.89,53.2,21.89,53.2s3.86-5,6.06-10.7c2.19-5.66,0.73-9.03-5.28-8.89
			c-11.48,0.28-19.76,4.41-19.76,4.41c21.3-27.48,60.1-31.37,82.12-21.09c8.1,3.78,12.38,8.11,14.63,11.5l-0.47-4.15
			c2.56,2.31,3.31,5.71,3.5,8.06c1.48-1.12,2.1-2.94,2.1-2.94c0.26,2.11,0.05,3.68-0.21,4.71c2.09-0.22,5.6-0.28,10.64,0.58
			l-1.03,0.92c2.75,0.43,5.7,1.1,8.54,2.18c0,0-1.85-0.04-3.69,0.56C122.88,39.43,126.82,40.88,130,42.8z"/>
		<path class="st3" d="M71.36,19.77c-0.15-0.14-0.32-0.27-0.51-0.4c-0.09-0.07-0.19-0.13-0.29-0.2c-0.2-0.13-0.42-0.25-0.66-0.37
			c-0.23-0.12-0.49-0.24-0.76-0.35c-0.54-0.23-1.16-0.44-1.86-0.62c-0.18-0.05-0.36-0.09-0.54-0.14c-0.75-0.18-1.57-0.33-2.49-0.46
			c-0.46-0.07-0.94-0.13-1.45-0.18c-0.58-0.06-1.2-0.11-1.82-0.13c0,0-0.01,0.01-0.02,0c-4.37-0.21-9.68,0.31-15.03,1.37
			c-0.42,0.08-0.83,0.17-1.25,0.26c-0.82,0.17-1.65,0.36-2.47,0.56c0,0-0.01,0.01-0.02,0.01c-0.71,0.17-1.42,0.35-2.12,0.55
			c-0.53,0.14-1.04,0.29-1.56,0.44c-0.8,0.24-1.6,0.49-2.38,0.75c-0.4,0.13-0.79,0.26-1.17,0.39c-2.7,0.94-5.22,2.01-7.41,3.17
			c-0.63,0.33-1.23,0.67-1.8,1.02c-0.86,0.52-1.65,1.06-2.36,1.61c0,0,13.09-2.77,26.56-3.41c-2.01,0.68-4.51,1.85-5.92,3.57
			c-2.38,2.36-5.93,7.18-9.86,20.94l0.57-0.07c1.68-0.22,6.76-0.83,9.76-0.98l5.07-0.29c0.55,0,1.11-0.02,1.69-0.05
			c0.06-0.04,0.13-0.09,0.19-0.13c0.13-0.09,0.26-0.18,0.39-0.27c0.12-0.08,0.25-0.16,0.37-0.24c0.14-0.09,0.28-0.18,0.42-0.27
			L53,45.61c0.05-0.03,0.11-0.06,0.16-0.1c0,0,0.01,0,0.01-0.01c0.09-0.05,0.19-0.11,0.28-0.17l0.37-0.22
			c0.14-0.08,0.29-0.17,0.43-0.25c0.07-0.05,0.15-0.09,0.23-0.13c0.06-0.04,0.13-0.08,0.2-0.12c0.37-0.21,0.76-0.42,1.15-0.62
			c0.07-0.04,0.13-0.08,0.2-0.11c2.3-1.2,4.89-2.31,7.7-3.21c0.5-0.16,1.01-0.32,1.52-0.46c0.08-0.02,0.17-0.05,0.25-0.07
			c0.57-0.16,1.15-0.31,1.74-0.45c0.17-0.27,0.33-0.56,0.47-0.86c1.61-3.46-0.94-6.93-5.44-7.52c4.35-0.92,8.97-3.79,9.92-5.9
			C72.88,23.85,73.44,21.58,71.36,19.77z M96.78,47.07c13.27,1.56,25.41,3.54,33.22,6.07v-7.15c-0.2-0.11-0.4-0.24-0.61-0.36
			c-9-6-22.84-6.98-22.84-6.98l3.5,2.82l-6.51-0.57l5.15,3.72c-3.42-1.12-10.44-3.41-18.21-4.26c-0.37-0.04-0.75-0.07-1.12-0.11
			c-0.09-0.01-0.18-0.01-0.26-0.02c-0.48-0.04-0.97-0.08-1.45-0.11c-0.35-0.02-0.7-0.04-1.05-0.05c-0.25-0.01-0.51-0.02-0.76-0.02
			c-3.33-0.08-6.69,0.18-9.88,0.98c0,0,13.53-0.15,19.7,3.53c-22.27-3.64-34.12,3.81-34.71,4.19c12.84-3.66,23.09-2.64,26.46-2.14
			c-5.41,1.29,0.96,5.24,4.85,7.31c0.44,1.08,1.49,3.27,0.47,5.14c0.14-0.17,1.21-1.61,2.02-3.66l3.16,2.53
			c9.44-1.16,16.4,0.83,24.22,0.79c3-0.02,5.6-0.17,7.87-0.43v-2.77c-12.81-3.88-31.34-5.54-34.57-5.27c0,0-2.02,0.57,0.31,2.8
			c-3.26-1.28-6.51-3.72-6.74-4.96C88.76,46.78,91.14,46.41,96.78,47.07z"/>
		<path class="st0" d="M78.91,17.81c24.45,7.29,20.75,21.3,20.75,21.3s-1.97,0.12-4.3-4.22c-2.2-4.1-5.45-4.63-5.45-4.63
			s2.4-0.22,5.77,1.25c0,0-4.73-7.09-18.25-6.55c0,0,6.82,0.84,9.7,4.65c0,0-9.18-1.44-17.44,2.82c0,0,7.37-1.22,13.01,2.59
			c0,0-8.47-0.63-13.12,4.19c4.14-0.76,8.62-1.01,13.32-0.46c3.08,0.47,5.69,1.09,7.62,1.62c-4.79-0.53-9.86-0.51-14.57,0.66
			c0,0,13.53-0.15,19.7,3.53c-22.85-3.73-34.74,4.2-34.74,4.2c12.85-3.67,23.11-2.65,26.48-2.15c-5.41,1.29,0.96,5.24,4.85,7.31
			c0.44,1.08,1.51,3.3,0.47,5.16c-2.56,3.5-5.41,4.21-5.41,4.21c1.69-4.27-0.37-7.32-0.37-7.32s-1.43,4.4-7.63,6.99
			c-6.8,2.84-7.85,6.99-7.85,6.99s-0.25-3.79,3.35-7.78c1.15-1.29,2-2.35,2.54-3.29l-7.6,2.08c5.1-14.81-24.33-8.85-24.33-8.85
			c1.08-1.53,3.17-3.51,6.04-5.48c0.13-0.09,0.26-0.18,0.4-0.27c0.12-0.08,0.24-0.16,0.36-0.24c0.14-0.09,0.28-0.18,0.42-0.27
			L53,45.61c0.15-0.09,0.3-0.19,0.45-0.28l0.37-0.22c0.16-0.1,0.33-0.19,0.49-0.29c0.12-0.07,0.24-0.14,0.37-0.21
			c3.5-1.97,7.76-3.78,12.56-4.92c0.17-0.28,0.33-0.56,0.47-0.86c1.61-3.46-0.94-6.93-5.44-7.52c4.35-0.93,8.97-3.79,9.91-5.9
			c1.16-2.62,1.93-7.2-9.38-8.35c-11.32-1.15-30.95,3.43-39.42,10c0,0,13.09-2.77,26.56-3.41c-2,0.68-4.5,1.85-5.92,3.57
			c-2.38,2.36-5.93,7.18-9.86,20.93l0.57-0.07l-5.04,0.79c0,0,7.7-12.3,2.62-17.53c-4.37-4.5-18.94,0.08-18.94,0.08
			C27.85,17.57,53.92,10.36,78.91,17.81L78.91,17.81z M53.27,42.47c-0.77,0.19-1.51,0.26-2.13,0.26h-2.89c0,0,1.16-3.62,3.03-7.57
			h1.13c2.7,0,4.19,1.51,2.51,5.12C54.49,41.22,53.92,41.93,53.27,42.47L53.27,42.47z M58.29,29.99c-0.82,0.24-1.72,0.38-2.69,0.38
			h-2.03c1.26-2.89,2.26-4.65,2.96-5.7c2.64,0.02,3.72,1.34,2.32,4.34C58.67,29.39,58.48,29.71,58.29,29.99L58.29,29.99z"/>
		<path d="M58.84,29.01c-0.18,0.38-0.36,0.7-0.56,0.98c1.62-0.48,2.87-1.38,3.49-2.44c1.36-2.36,0.32-4.06-1.87-4.29l-2.27,0.01
			c0,0-0.39,0.32-1.11,1.41C59.17,24.69,60.24,26.01,58.84,29.01L58.84,29.01z M54.92,40.3c-0.43,0.92-1,1.63-1.65,2.18
			c1.71-0.42,3.57-1.45,4.59-3.64c1.68-3.61,0.18-5.13-2.51-5.13H52c-0.25,0.49-0.49,0.98-0.72,1.46h1.13
			C55.1,35.17,56.6,36.68,54.92,40.3L54.92,40.3z"/>
		<path class="st2" d="M71.15,21.79c-1.06-1.74-3.64-2.76-8.23-3c0,0-4.64-0.63-10.52,0.16c-2.32,0.31-13.63,1.46-23.25,6.15
			c8.42-2.05,18.36-2.8,24.66-3.02c2.65-0.09,5.56-0.01,5.56-0.01c1.88,0,3.63,0.56,4.3,1.65c0.69,1.14,0.89,2.5-0.42,4.16
			c-0.72,0.92-1.56,1.88-4.01,2.88l2.82-0.6c4.22-0.9,8.05-3.27,8.93-5.1C71.64,23.72,71.67,22.64,71.15,21.79L71.15,21.79z"/>
		<path class="st2" d="M50.74,32.53h4.65c2.4,0,3.5,0.98,4.01,1.81c0.79,1.3,0.65,3.04-0.33,5.23c-1.89,4.22-6.47,4.6-7.85,4.6
			l-5.27,0.2C48.23,37.13,50.74,32.53,50.74,32.53L50.74,32.53z M53.16,45.51c3.35-2.07,7.55-4.04,12.34-5.37
			c0.3-0.4,0.56-0.83,0.77-1.28c0.48-1.03,0.54-2.32,0.19-3.33c-0.52-1.54-1.55-2.57-4.8-3.32c-4.27-1-10.52-0.56-10.52-0.56
			c1.44-3.48,2.51-5.52,3.58-7.29c-0.92-0.06-5.58,0.43-9.16,3.84c-3.11,2.75-6.48,9.89-9.15,18.4c4.6-0.48,8.77-0.7,8.77-0.7
			l4.38-0.19C50.73,45.71,51.94,45.65,53.16,45.51L53.16,45.51z"/>
		<path class="st4" d="M92.13,33.89c0.7,1.66-0.26,3.5-2.16,4.11c-1.89,0.62-4-0.23-4.7-1.89c-0.7-1.66,0.27-3.5,2.16-4.11
			C89.32,31.38,91.43,32.23,92.13,33.89z M91.96,34.9c-0.38-0.99-1.54-1.49-2.6-1.11c-1.05,0.38-1.6,1.49-1.22,2.48
			c0.38,1,1.54,1.49,2.6,1.12C91.79,37,92.34,35.89,91.96,34.9L91.96,34.9z"/>
		<path class="st3" d="M87.26,36.32c-0.53-1.25,0.23-2.65,1.7-3.12c0.56-0.18,1.15-0.2,1.69-0.09c-0.73-0.46-1.72-0.6-2.65-0.3
			c-1.47,0.47-2.23,1.87-1.7,3.13c0.32,0.77,1.06,1.3,1.92,1.49C87.8,37.16,87.46,36.78,87.26,36.32L87.26,36.32z"/>
	</g>
</g>
<g id="Layer_3" class="st5">
	<polygon class="st6" points="0,88 0,0 130,0 	"/>
</g>
</svg>
